<svg width="145" height="33" viewBox="0 0 145 33" fill="none" xmlns="http://www.w3.org/2000/svg">
<path d="M18.9121 12.7495V17.4561C18.735 17.6829 18.4556 17.9292 18.0737 18.1948C17.6974 18.4604 17.2049 18.6901 16.5962 18.8838C15.9875 19.0719 15.2404 19.166 14.355 19.166C13.5858 19.166 12.883 19.0387 12.2466 18.7842C11.6102 18.5241 11.0623 18.145 10.603 17.647C10.1437 17.1489 9.78955 16.5402 9.54053 15.8208C9.2915 15.1014 9.16699 14.2796 9.16699 13.3555V12.5586C9.16699 11.6344 9.2832 10.8127 9.51562 10.0933C9.75358 9.37386 10.0911 8.76514 10.5283 8.26709C10.971 7.76904 11.4995 7.38997 12.1138 7.12988C12.7336 6.86979 13.4253 6.73975 14.189 6.73975C15.2127 6.73975 16.0539 6.90853 16.7124 7.24609C17.3765 7.58366 17.8856 8.0485 18.2397 8.64062C18.5939 9.22721 18.8153 9.90234 18.9038 10.666H16.6792C16.6183 10.2454 16.4966 9.87744 16.314 9.56201C16.1313 9.24105 15.8713 8.99202 15.5337 8.81494C15.2017 8.63232 14.77 8.54102 14.2388 8.54102C13.7905 8.54102 13.3949 8.62956 13.0518 8.80664C12.7087 8.98372 12.4209 9.24105 12.1885 9.57861C11.9561 9.91618 11.779 10.334 11.6572 10.832C11.541 11.3301 11.4829 11.9001 11.4829 12.542V13.3555C11.4829 14.0029 11.5493 14.5785 11.6821 15.082C11.8149 15.5801 12.0059 16.0007 12.2549 16.3438C12.5094 16.6813 12.8221 16.9386 13.1929 17.1157C13.5692 17.2873 13.9953 17.373 14.4712 17.373C14.9028 17.373 15.2598 17.3371 15.542 17.2651C15.8298 17.1877 16.0594 17.0964 16.231 16.9912C16.4025 16.8861 16.5353 16.7837 16.6294 16.6841V14.418H14.2305V12.7495H18.9121Z" fill="#2D65FF"/>
<path d="M24.9385 19.166C24.2578 19.166 23.6463 19.0553 23.104 18.834C22.5617 18.6126 22.0996 18.3055 21.7178 17.9126C21.3415 17.5142 21.0509 17.0521 20.8462 16.5264C20.647 15.9951 20.5474 15.4251 20.5474 14.8164V14.4844C20.5474 13.7926 20.647 13.1646 20.8462 12.6001C21.0454 12.0301 21.3276 11.5404 21.6929 11.1309C22.0581 10.7214 22.4953 10.4059 23.0044 10.1846C23.5135 9.96322 24.0752 9.85254 24.6895 9.85254C25.3258 9.85254 25.8875 9.96045 26.3745 10.1763C26.8615 10.3866 27.2682 10.6854 27.5947 11.0728C27.9212 11.4601 28.1675 11.925 28.3335 12.4673C28.4995 13.0041 28.5825 13.599 28.5825 14.252V15.1733H21.5435V13.6626H26.4243V13.4966C26.4132 13.1479 26.3468 12.8298 26.2251 12.542C26.1034 12.2487 25.9152 12.0163 25.6606 11.8447C25.4061 11.6676 25.0768 11.5791 24.6729 11.5791C24.3464 11.5791 24.0614 11.651 23.8179 11.7949C23.5799 11.9333 23.3807 12.1325 23.2202 12.3926C23.0653 12.6471 22.9491 12.9515 22.8716 13.3057C22.7941 13.6598 22.7554 14.0527 22.7554 14.4844V14.8164C22.7554 15.1927 22.8052 15.5413 22.9048 15.8623C23.0099 16.1833 23.1621 16.4627 23.3613 16.7007C23.5661 16.9331 23.8096 17.1157 24.0918 17.2485C24.3796 17.3758 24.7061 17.4395 25.0713 17.4395C25.5306 17.4395 25.9456 17.3509 26.3164 17.1738C26.6927 16.9912 27.0192 16.7228 27.2959 16.3687L28.3999 17.5142C28.2118 17.7909 27.9572 18.0565 27.6362 18.311C27.3208 18.5656 26.939 18.7731 26.4907 18.9336C26.0425 19.0885 25.5251 19.166 24.9385 19.166Z" fill="#2D65FF"/>
<path d="M34.0859 19.166C33.4053 19.166 32.7938 19.0553 32.2515 18.834C31.7091 18.6126 31.2471 18.3055 30.8652 17.9126C30.4889 17.5142 30.1984 17.0521 29.9937 16.5264C29.7944 15.9951 29.6948 15.4251 29.6948 14.8164V14.4844C29.6948 13.7926 29.7944 13.1646 29.9937 12.6001C30.1929 12.0301 30.4751 11.5404 30.8403 11.1309C31.2056 10.7214 31.6427 10.4059 32.1519 10.1846C32.661 9.96322 33.2227 9.85254 33.8369 9.85254C34.4733 9.85254 35.035 9.96045 35.522 10.1763C36.009 10.3866 36.4157 10.6854 36.7422 11.0728C37.0687 11.4601 37.3149 11.925 37.481 12.4673C37.647 13.0041 37.73 13.599 37.73 14.252V15.1733H30.6909V13.6626H35.5718V13.4966C35.5607 13.1479 35.4943 12.8298 35.3726 12.542C35.2508 12.2487 35.0627 12.0163 34.8081 11.8447C34.5535 11.6676 34.2243 11.5791 33.8203 11.5791C33.4938 11.5791 33.2088 11.651 32.9653 11.7949C32.7274 11.9333 32.5282 12.1325 32.3677 12.3926C32.2127 12.6471 32.0965 12.9515 32.019 13.3057C31.9416 13.6598 31.9028 14.0527 31.9028 14.4844V14.8164C31.9028 15.1927 31.9526 15.5413 32.0522 15.8623C32.1574 16.1833 32.3096 16.4627 32.5088 16.7007C32.7135 16.9331 32.957 17.1157 33.2393 17.2485C33.527 17.3758 33.8535 17.4395 34.2188 17.4395C34.6781 17.4395 35.0931 17.3509 35.4639 17.1738C35.8402 16.9912 36.1667 16.7228 36.4434 16.3687L37.5474 17.5142C37.3592 17.7909 37.1047 18.0565 36.7837 18.311C36.4683 18.5656 36.0864 18.7731 35.6382 18.9336C35.1899 19.0885 34.6725 19.166 34.0859 19.166Z" fill="#2D65FF"/>
<path d="M41.3906 6.2417V19H39.1992V6.2417H41.3906ZM47.0186 10.0186L43.1089 14.4097L40.9922 16.5596L40.2949 14.8579L41.9302 12.7993L44.3706 10.0186H47.0186ZM44.7773 19L41.9966 14.8164L43.4575 13.397L47.3174 19H44.7773Z" fill="#2D65FF"/>
<path d="M55.4189 15.0239H57.7017C57.6408 15.8319 57.4167 16.5485 57.0293 17.1738C56.6419 17.7936 56.1024 18.2806 55.4106 18.6348C54.7189 18.9889 53.8805 19.166 52.8955 19.166C52.1374 19.166 51.4539 19.0332 50.8452 18.7676C50.242 18.4964 49.7246 18.1118 49.293 17.6138C48.8669 17.1102 48.5404 16.507 48.3135 15.8042C48.0866 15.0959 47.9731 14.3018 47.9731 13.4219V12.5005C47.9731 11.6206 48.0894 10.8265 48.3218 10.1182C48.5542 9.40983 48.8862 8.80664 49.3179 8.30859C49.755 7.80501 50.278 7.41764 50.8867 7.14648C51.501 6.87533 52.1872 6.73975 52.9453 6.73975C53.9303 6.73975 54.7632 6.92236 55.4438 7.2876C56.1245 7.6473 56.653 8.14258 57.0293 8.77344C57.4056 9.4043 57.6325 10.1292 57.71 10.9482H55.4272C55.383 10.4391 55.2723 10.0075 55.0952 9.65332C54.9237 9.29915 54.6636 9.03076 54.3149 8.84814C53.9718 8.65999 53.5153 8.56592 52.9453 8.56592C52.5026 8.56592 52.1125 8.64893 51.7749 8.81494C51.4429 8.98096 51.1662 9.22998 50.9448 9.56201C50.7235 9.88851 50.5575 10.298 50.4468 10.7905C50.3361 11.2775 50.2808 11.842 50.2808 12.4839V13.4219C50.2808 14.0361 50.3306 14.5868 50.4302 15.0737C50.5298 15.5607 50.6847 15.973 50.895 16.3105C51.1053 16.6481 51.3765 16.9054 51.7085 17.0825C52.0405 17.2596 52.4362 17.3481 52.8955 17.3481C53.4544 17.3481 53.9082 17.2596 54.2568 17.0825C54.611 16.9054 54.8794 16.6453 55.062 16.3022C55.2502 15.9591 55.3691 15.533 55.4189 15.0239Z" fill="#2D65FF"/>
<path d="M58.9136 14.6006V14.4263C58.9136 13.7677 59.0076 13.1618 59.1958 12.6084C59.384 12.0495 59.6579 11.5653 60.0176 11.1558C60.3773 10.7463 60.8172 10.4281 61.3374 10.2012C61.8576 9.96875 62.4497 9.85254 63.1138 9.85254C63.7889 9.85254 64.3866 9.96875 64.9067 10.2012C65.4325 10.4281 65.8752 10.7463 66.2349 11.1558C66.5946 11.5653 66.8685 12.0495 67.0566 12.6084C67.2448 13.1618 67.3389 13.7677 67.3389 14.4263V14.6006C67.3389 15.2536 67.2448 15.8595 67.0566 16.4185C66.8685 16.9718 66.5946 17.4561 66.2349 17.8711C65.8752 18.2806 65.4352 18.5988 64.915 18.8257C64.3949 19.0526 63.8 19.166 63.1304 19.166C62.4663 19.166 61.8714 19.0526 61.3457 18.8257C60.82 18.5988 60.3773 18.2806 60.0176 17.8711C59.6579 17.4561 59.384 16.9718 59.1958 16.4185C59.0076 15.8595 58.9136 15.2536 58.9136 14.6006ZM61.105 14.4263V14.6006C61.105 14.9935 61.1437 15.3615 61.2212 15.7046C61.2987 16.0477 61.4176 16.3493 61.5781 16.6094C61.7386 16.8695 61.9461 17.0742 62.2007 17.2236C62.4608 17.3675 62.7707 17.4395 63.1304 17.4395C63.4845 17.4395 63.7889 17.3675 64.0435 17.2236C64.298 17.0742 64.5055 16.8695 64.666 16.6094C64.832 16.3493 64.9538 16.0477 65.0312 15.7046C65.1087 15.3615 65.1475 14.9935 65.1475 14.6006V14.4263C65.1475 14.0389 65.1087 13.6764 65.0312 13.3389C64.9538 12.9958 64.832 12.6942 64.666 12.4341C64.5055 12.1685 64.2952 11.9609 64.0352 11.8115C63.7806 11.6566 63.4735 11.5791 63.1138 11.5791C62.7596 11.5791 62.4552 11.6566 62.2007 11.8115C61.9461 11.9609 61.7386 12.1685 61.5781 12.4341C61.4176 12.6942 61.2987 12.9958 61.2212 13.3389C61.1437 13.6764 61.105 14.0389 61.105 14.4263Z" fill="#2D65FF"/>
<path d="M74.3198 17.0908V6.25H76.5278V19H74.5356L74.3198 17.0908ZM68.5508 14.6172V14.4429C68.5508 13.7567 68.6283 13.1341 68.7832 12.5752C68.9437 12.0107 69.1761 11.5265 69.4805 11.1226C69.7848 10.7186 70.1528 10.4059 70.5845 10.1846C71.0216 9.96322 71.5169 9.85254 72.0703 9.85254C72.6071 9.85254 73.0747 9.96045 73.4731 10.1763C73.8771 10.3921 74.2202 10.6992 74.5024 11.0977C74.7902 11.4961 75.0199 11.9692 75.1914 12.5171C75.363 13.0594 75.4875 13.6571 75.5649 14.3101V14.7832C75.4875 15.4196 75.363 16.0034 75.1914 16.5347C75.0199 17.0659 74.7902 17.5308 74.5024 17.9292C74.2202 18.3221 73.8771 18.6265 73.4731 18.8423C73.0692 19.0581 72.596 19.166 72.0537 19.166C71.5059 19.166 71.0133 19.0526 70.5762 18.8257C70.1445 18.5988 69.7765 18.2806 69.4722 17.8711C69.1733 17.4616 68.9437 16.9801 68.7832 16.4268C68.6283 15.8734 68.5508 15.2702 68.5508 14.6172ZM70.7505 14.4429V14.6172C70.7505 15.0046 70.7837 15.367 70.8501 15.7046C70.9165 16.0422 71.0244 16.341 71.1738 16.6011C71.3232 16.8556 71.5142 17.0549 71.7466 17.1987C71.9845 17.3426 72.2723 17.4146 72.6099 17.4146C73.0415 17.4146 73.3957 17.3205 73.6724 17.1323C73.9546 16.9386 74.1732 16.6758 74.3281 16.3438C74.4831 16.0062 74.5827 15.6271 74.627 15.2065V13.9033C74.6048 13.5713 74.5467 13.2642 74.4526 12.9819C74.3641 12.6997 74.2368 12.4562 74.0708 12.2515C73.9103 12.0467 73.7111 11.8862 73.4731 11.77C73.2352 11.6538 72.953 11.5957 72.6265 11.5957C72.2889 11.5957 72.0011 11.6704 71.7632 11.8198C71.5252 11.9637 71.3315 12.1657 71.1821 12.4258C71.0327 12.6859 70.922 12.9875 70.8501 13.3306C70.7837 13.6737 70.7505 14.0444 70.7505 14.4429Z" fill="#2D65FF"/>
<path d="M82.5459 19.166C81.8652 19.166 81.2537 19.0553 80.7114 18.834C80.1691 18.6126 79.707 18.3055 79.3252 17.9126C78.9489 17.5142 78.6584 17.0521 78.4536 16.5264C78.2544 15.9951 78.1548 15.4251 78.1548 14.8164V14.4844C78.1548 13.7926 78.2544 13.1646 78.4536 12.6001C78.6528 12.0301 78.9351 11.5404 79.3003 11.1309C79.6655 10.7214 80.1027 10.4059 80.6118 10.1846C81.1209 9.96322 81.6826 9.85254 82.2969 9.85254C82.9333 9.85254 83.495 9.96045 83.9819 10.1763C84.4689 10.3866 84.8757 10.6854 85.2021 11.0728C85.5286 11.4601 85.7749 11.925 85.9409 12.4673C86.1069 13.0041 86.1899 13.599 86.1899 14.252V15.1733H79.1509V13.6626H84.0317V13.4966C84.0207 13.1479 83.9543 12.8298 83.8325 12.542C83.7108 12.2487 83.5226 12.0163 83.2681 11.8447C83.0135 11.6676 82.6842 11.5791 82.2803 11.5791C81.9538 11.5791 81.6688 11.651 81.4253 11.7949C81.1873 11.9333 80.9881 12.1325 80.8276 12.3926C80.6727 12.6471 80.5565 12.9515 80.479 13.3057C80.4015 13.6598 80.3628 14.0527 80.3628 14.4844V14.8164C80.3628 15.1927 80.4126 15.5413 80.5122 15.8623C80.6174 16.1833 80.7695 16.4627 80.9688 16.7007C81.1735 16.9331 81.417 17.1157 81.6992 17.2485C81.987 17.3758 82.3135 17.4395 82.6787 17.4395C83.138 17.4395 83.5531 17.3509 83.9238 17.1738C84.3001 16.9912 84.6266 16.7228 84.9033 16.3687L86.0073 17.5142C85.8192 17.7909 85.5646 18.0565 85.2437 18.311C84.9282 18.5656 84.5464 18.7731 84.0981 18.9336C83.6499 19.0885 83.1325 19.166 82.5459 19.166Z" fill="#2D65FF"/>
<path d="M101.604 15.0239H103.887C103.826 15.8319 103.602 16.5485 103.215 17.1738C102.827 17.7936 102.288 18.2806 101.596 18.6348C100.904 18.9889 100.066 19.166 99.0811 19.166C98.3229 19.166 97.6395 19.0332 97.0308 18.7676C96.4276 18.4964 95.9102 18.1118 95.4785 17.6138C95.0524 17.1102 94.7259 16.507 94.499 15.8042C94.2721 15.0959 94.1587 14.3018 94.1587 13.4219V12.5005C94.1587 11.6206 94.2749 10.8265 94.5073 10.1182C94.7397 9.40983 95.0718 8.80664 95.5034 8.30859C95.9406 7.80501 96.4635 7.41764 97.0723 7.14648C97.6865 6.87533 98.3727 6.73975 99.1309 6.73975C100.116 6.73975 100.949 6.92236 101.629 7.2876C102.31 7.6473 102.839 8.14258 103.215 8.77344C103.591 9.4043 103.818 10.1292 103.896 10.9482H101.613C101.569 10.4391 101.458 10.0075 101.281 9.65332C101.109 9.29915 100.849 9.03076 100.5 8.84814C100.157 8.65999 99.7008 8.56592 99.1309 8.56592C98.6882 8.56592 98.298 8.64893 97.9604 8.81494C97.6284 8.98096 97.3517 9.22998 97.1304 9.56201C96.909 9.88851 96.743 10.298 96.6323 10.7905C96.5216 11.2775 96.4663 11.842 96.4663 12.4839V13.4219C96.4663 14.0361 96.5161 14.5868 96.6157 15.0737C96.7153 15.5607 96.8703 15.973 97.0806 16.3105C97.2909 16.6481 97.562 16.9054 97.894 17.0825C98.2261 17.2596 98.6217 17.3481 99.0811 17.3481C99.64 17.3481 100.094 17.2596 100.442 17.0825C100.797 16.9054 101.065 16.6453 101.248 16.3022C101.436 15.9591 101.555 15.533 101.604 15.0239Z" fill="#2D65FF"/>
<path d="M107.813 6.25V19H105.614V6.25H107.813Z" fill="#2D65FF"/>
<path d="M109.515 14.6006V14.4263C109.515 13.7677 109.609 13.1618 109.797 12.6084C109.986 12.0495 110.259 11.5653 110.619 11.1558C110.979 10.7463 111.419 10.4281 111.939 10.2012C112.459 9.96875 113.051 9.85254 113.715 9.85254C114.39 9.85254 114.988 9.96875 115.508 10.2012C116.034 10.4281 116.477 10.7463 116.836 11.1558C117.196 11.5653 117.47 12.0495 117.658 12.6084C117.846 13.1618 117.94 13.7677 117.94 14.4263V14.6006C117.94 15.2536 117.846 15.8595 117.658 16.4185C117.47 16.9718 117.196 17.4561 116.836 17.8711C116.477 18.2806 116.037 18.5988 115.517 18.8257C114.996 19.0526 114.402 19.166 113.732 19.166C113.068 19.166 112.473 19.0526 111.947 18.8257C111.422 18.5988 110.979 18.2806 110.619 17.8711C110.259 17.4561 109.986 16.9718 109.797 16.4185C109.609 15.8595 109.515 15.2536 109.515 14.6006ZM111.707 14.4263V14.6006C111.707 14.9935 111.745 15.3615 111.823 15.7046C111.9 16.0477 112.019 16.3493 112.18 16.6094C112.34 16.8695 112.548 17.0742 112.802 17.2236C113.062 17.3675 113.372 17.4395 113.732 17.4395C114.086 17.4395 114.39 17.3675 114.645 17.2236C114.9 17.0742 115.107 16.8695 115.268 16.6094C115.434 16.3493 115.555 16.0477 115.633 15.7046C115.71 15.3615 115.749 14.9935 115.749 14.6006V14.4263C115.749 14.0389 115.71 13.6764 115.633 13.3389C115.555 12.9958 115.434 12.6942 115.268 12.4341C115.107 12.1685 114.897 11.9609 114.637 11.8115C114.382 11.6566 114.075 11.5791 113.715 11.5791C113.361 11.5791 113.057 11.6566 112.802 11.8115C112.548 11.9609 112.34 12.1685 112.18 12.4341C112.019 12.6942 111.9 12.9958 111.823 13.3389C111.745 13.6764 111.707 14.0389 111.707 14.4263Z" fill="#2D65FF"/>
<path d="M124.88 16.8667V10.0186H127.088V19H125.013L124.88 16.8667ZM125.162 15.0073L125.843 14.9907C125.843 15.5939 125.776 16.1501 125.644 16.6592C125.511 17.1683 125.303 17.611 125.021 17.9873C124.744 18.3581 124.393 18.6486 123.967 18.8589C123.541 19.0636 123.037 19.166 122.456 19.166C122.013 19.166 121.609 19.1051 121.244 18.9834C120.879 18.8561 120.563 18.6597 120.298 18.394C120.038 18.1229 119.836 17.777 119.692 17.3564C119.548 16.9303 119.476 16.4185 119.476 15.8208V10.0186H121.667V15.8374C121.667 16.1362 121.701 16.3853 121.767 16.5845C121.839 16.7837 121.936 16.9469 122.058 17.0742C122.185 17.196 122.332 17.2845 122.498 17.3398C122.669 17.3896 122.852 17.4146 123.045 17.4146C123.577 17.4146 123.994 17.3094 124.299 17.0991C124.609 16.8833 124.83 16.5955 124.963 16.2358C125.096 15.8706 125.162 15.4611 125.162 15.0073Z" fill="#2D65FF"/>
<path d="M134.417 17.0908V6.25H136.625V19H134.633L134.417 17.0908ZM128.648 14.6172V14.4429C128.648 13.7567 128.726 13.1341 128.881 12.5752C129.041 12.0107 129.274 11.5265 129.578 11.1226C129.882 10.7186 130.25 10.4059 130.682 10.1846C131.119 9.96322 131.615 9.85254 132.168 9.85254C132.705 9.85254 133.172 9.96045 133.571 10.1763C133.975 10.3921 134.318 10.6992 134.6 11.0977C134.888 11.4961 135.118 11.9692 135.289 12.5171C135.461 13.0594 135.585 13.6571 135.663 14.3101V14.7832C135.585 15.4196 135.461 16.0034 135.289 16.5347C135.118 17.0659 134.888 17.5308 134.6 17.9292C134.318 18.3221 133.975 18.6265 133.571 18.8423C133.167 19.0581 132.694 19.166 132.151 19.166C131.604 19.166 131.111 19.0526 130.674 18.8257C130.242 18.5988 129.874 18.2806 129.57 17.8711C129.271 17.4616 129.041 16.9801 128.881 16.4268C128.726 15.8734 128.648 15.2702 128.648 14.6172ZM130.848 14.4429V14.6172C130.848 15.0046 130.881 15.367 130.948 15.7046C131.014 16.0422 131.122 16.341 131.271 16.6011C131.421 16.8556 131.612 17.0549 131.844 17.1987C132.082 17.3426 132.37 17.4146 132.708 17.4146C133.139 17.4146 133.493 17.3205 133.77 17.1323C134.052 16.9386 134.271 16.6758 134.426 16.3438C134.581 16.0062 134.68 15.6271 134.725 15.2065V13.9033C134.702 13.5713 134.644 13.2642 134.55 12.9819C134.462 12.6997 134.334 12.4562 134.168 12.2515C134.008 12.0467 133.809 11.8862 133.571 11.77C133.333 11.6538 133.051 11.5957 132.724 11.5957C132.387 11.5957 132.099 11.6704 131.861 11.8198C131.623 11.9637 131.429 12.1657 131.28 12.4258C131.13 12.6859 131.02 12.9875 130.948 13.3306C130.881 13.6737 130.848 14.0444 130.848 14.4429Z" fill="#2D65FF"/>
<path fill-rule="evenodd" clip-rule="evenodd" d="M7 1C7 0.447715 7.44772 0 8 0H87C89.2091 0 91 1.79086 91 4V23C91 25.2091 89.2091 27 87 27H39.3161L31.0341 32.8183C30.7287 33.0328 30.3293 33.0594 29.9982 32.8874C29.667 32.7153 29.4592 32.3732 29.4592 32V27H8C7.44772 27 7 26.5523 7 26C7 25.4477 7.44772 25 8 25H30.4592C31.0115 25 31.4592 25.4477 31.4592 26V30.0754L38.4252 25.1817C38.5935 25.0635 38.7943 25 39 25H87C88.1046 25 89 24.1046 89 23V4C89 2.89543 88.1046 2 87 2H8C7.44772 2 7 1.55228 7 1Z" fill="#2D65FF"/>
<path fill-rule="evenodd" clip-rule="evenodd" d="M140.372 5.98886C139.929 5.65001 139.376 5.55963 139 5.55963V4C139.572 4 140.518 4.12797 141.339 4.7561C142.198 5.41364 142.789 6.51921 142.789 8.21101C142.789 10.862 144.414 11.6422 145 11.6422V12.578C143.375 12.578 140.895 12.1101 140.895 9.14679C140.895 7.8441 140.776 6.29828 140.372 5.98886Z" fill="#2D65FF"/>
<path fill-rule="evenodd" clip-rule="evenodd" d="M140.372 19.0111C139.929 19.35 139.376 19.4404 139 19.4404V21C139.572 21 140.518 20.872 141.339 20.2439C142.198 19.5864 142.789 18.4808 142.789 16.789C142.789 14.138 144.414 13.3578 145 13.3578V12.422C143.375 12.422 140.895 12.8899 140.895 15.8532C140.895 17.1559 140.776 18.7017 140.372 19.0111Z" fill="#2D65FF"/>
<path fill-rule="evenodd" clip-rule="evenodd" d="M6.17113 3.15877C6.7613 2.62061 7.49918 2 8 2V0C7.23767 0 5.97554 0.203245 4.8815 1.20086C3.73623 2.2452 2.94737 4.00109 2.94737 6.68807C2.94737 10.8985 0.781197 12.1376 0 12.1376V13.6239C2.16617 13.6239 5.47368 12.8807 5.47368 8.17431C5.47368 6.10533 5.63219 3.65021 6.17113 3.15877Z" fill="#2D65FF"/>
<path fill-rule="evenodd" clip-rule="evenodd" d="M6.17113 23.8412C6.7613 24.3794 7.49918 25 8 25V27C7.23767 27 5.97554 26.7968 4.8815 25.7991C3.73623 24.7548 2.94737 22.9989 2.94737 20.3119C2.94737 16.1015 0.781197 14.8624 0 14.8624V13.3761C2.16617 13.3761 5.47368 14.1193 5.47368 18.8257C5.47368 20.8947 5.63219 23.3498 6.17113 23.8412Z" fill="#2D65FF"/>
</svg>
